<svg version="1.1" xmlns="http://www.w3.org/2000/svg" width="32" height="32" viewBox="0 0 32 32">
<path fill="#323c46" d="M12.696 31.35c-5.012-1.095-9.077-4.455-11.1-9.188-1.541-3.564-1.596-8.408-0.149-11.972 1.93-4.715 5.958-8.186 10.896-9.374 2.079-0.501 5.234-0.501 7.313 0 4.937 1.188 8.965 4.659 10.896 9.374 1.448 3.564 1.392 8.408-0.148 11.972-2.042 4.77-6.107 8.111-11.174 9.188-1.596 0.334-4.974 0.334-6.534 0zM16.371 18.264v-1.671h3.341v-1.299h-3.341v-3.341h-1.299v3.341h-3.341v1.299h3.341v3.341h1.299v-1.671z"></path>
</svg>
