<svg version="1.1" xmlns="http://www.w3.org/2000/svg" width="32" height="32" viewBox="0 0 32 32">
<path fill="#22d486" d="M12.696 31.35c-5.012-1.095-9.077-4.455-11.1-9.188-1.541-3.564-1.596-8.408-0.149-11.972 1.93-4.715 5.958-8.186 10.896-9.374 2.079-0.501 5.234-0.501 7.313 0 4.937 1.188 8.965 4.659 10.896 9.374 1.448 3.564 1.392 8.408-0.148 11.972-2.042 4.77-6.107 8.111-11.174 9.188-1.596 0.334-4.974 0.334-6.534 0zM17.671 16.501c3.211-3.211 3.23-3.23 2.877-3.62l-0.353-0.39-5.865 5.865-1.077-1.077c-1.151-1.132-1.336-1.225-1.708-0.761-0.223 0.241-0.037 0.483 1.225 1.763 0.798 0.798 1.503 1.466 1.559 1.466s1.559-1.466 3.341-3.248z"></path>
</svg>
