<svg version="1.1" xmlns="http://www.w3.org/2000/svg" width="32" height="32" viewBox="0 0 32 32">
<path fill="#ffffff" d="M-0.236 30.635v-30.331h18.995v5.561h-13.091v6.93h11.85v5.262h-11.85v7.016h13.091v5.561h-18.995zM23.935 27.042c0-1.084 0.378-2.004 1.134-2.759s1.676-1.134 2.759-1.134c0.542 0 1.055 0.1 1.54 0.299s0.905 0.478 1.262 0.834c0.357 0.357 0.635 0.77 0.834 1.241s0.299 0.977 0.299 1.519c0 0.542-0.1 1.048-0.299 1.519s-0.478 0.884-0.834 1.241c-0.357 0.357-0.777 0.635-1.262 0.834s-0.998 0.299-1.54 0.299c-1.084 0-2.004-0.378-2.759-1.134s-1.134-1.676-1.134-2.759z"></path>
</svg>
